Fairy.Tale.Killer.2012.720p.WEB-DL.x264.AAC-LeTV
General
          Format : Flash Video
          File size : 1.13 GiB
          Duration : 1h 33mn
          Overall bit rate : 1 743 Kbps
          Tagging application : Yet Another Metadata Injector for FLV - Version 1.8
       Video
          Format : AVC
          Format/Info : Advanced Video Codec
          Format profile : High@L3.1
          Format settings, CABAC : Yes
          Format settings, ReFrames : 4 frames
          Codec ID : 7
          Duration : 1h 33mn
          Bit rate : 1 607 Kbps
          Width : 1 280 pixels
          Height : 544 pixels
          Display aspect ratio : 2.35:1
          Frame rate mode : Constant
          Frame rate : 25.000 fps
          Color space : YUV
          Chroma subsampling : 4:2:0
          Bit depth : 8 bits
          Scan type : Progressive
          Bits/(Pixel*Frame) : 0.092
          Stream size : 1.07 GiB (95%)
          Writing library : H.264/MPEG-4 AVC codec
          Color primaries : BT.709-5, BT.1361, IEC 61966-2-4, SMPTE RP177
          Transfer characteristics : BT.709-5, BT.1361
          Matrix coefficients : BT.709-5, BT.1361, IEC 61966-2-4 709, SMPTE RP177
          Audio
          Format : AAC
          Format/Info : Advanced Audio Codec
          Format profile : LC
          Codec ID : 10
          Duration : 1h 33mn
          Bit rate : 86.4 Kbps
          Channel(s) : 2 channels
          Channel positions : Front: L R
          Sampling rate : 44.1 KHz
          Compression mode : Lossy
          Stream size : 61.4 MiB (5%)
 
http://72.imagebam.com/download/bog7Xmrjx8k3cdVWmiqubw/19926/199255924/shot0001.png 
http://38.imagebam.com/download/FBEjX4pNzj9oFmvWNTYMIw/19926/199255948/shot0002.png